<svg xmlns="http://www.w3.org/2000/svg" version="1.0" width="1261.000000pt" height="1280.000000pt" viewBox="0 0 1261.000000 1280.000000" preserveAspectRatio="xMidYMid meet">
<metadata>
Created by potrace 1.15, written by Peter Selinger 2001-2017
</metadata>
<g transform="translate(0.000000,1280.000000) scale(0.100000,-0.100000)" fill="#000000" stroke="none">
<path fill="currentColor" d="M6050 12785 c-253 -70 -587 -333 -1265 -995 -589 -576 -1509 -1531 -2360 -2450 -104 -113 -194 -208 -200 -212 -5 -4 -508 -8 -1117 -8 l-1108 0 0 -2725 0 -2725 1118 0 1117 -1 205 -226 c1253 -1386 2521 -2674 3048 -3098 527 -425 885 -455 996 -85 16 51 17 513 16 6093 0 5434 -2 6045 -16 6115 -42 208 -145 318 -307 328 -46 2 -92 -2 -127 -11z"/>
<path fill="currentColor" d="M10392 12393 c-12 -2 -137 -117 -277 -255 -319 -313 -312 -296 -170 -451 155 -170 376 -478 537 -747 577 -968 947 -2149 1077 -3440 43 -420 46 -503 46 -1095 -1 -593 -5 -695 -51 -1120 -58 -547 -165 -1090 -318 -1605 -282 -954 -767 -1862 -1298 -2428 -72 -77 -78 -86 -78 -126 0 -34 6 -50 33 -78 47 -52 478 -432 506 -447 47 -26 89 -6 184 87 236 229 545 606 757 922 255 381 504 877 690 1375 504 1353 686 2967 519 4595 -91 886 -294 1742 -595 2503 -303 766 -637 1330 -1148 1942 -126 150 -292 332 -320 350 -26 17 -64 24 -94 18z"/>
<path fill="currentColor" d="M8959 11043 c-24 -21 -150 -131 -280 -244 -196 -172 -237 -212 -243 -239 -9 -46 11 -78 124 -208 422 -484 801 -1238 1009 -2007 168 -625 242 -1208 242 -1915 0 -524 -37 -936 -127 -1405 -188 -974 -616 -1887 -1152 -2458 -80 -85 -92 -102 -92 -133 0 -19 7 -45 15 -58 15 -23 412 -400 488 -463 43 -36 81 -42 126 -19 76 40 474 488 663 747 509 698 860 1651 1002 2719 52 389 61 540 61 1065 0 485 -5 588 -41 915 -128 1155 -498 2205 -1057 3000 -186 265 -387 515 -539 673 -61 63 -68 67 -110 67 -37 0 -52 -6 -89 -37z"/>
<path fill="currentColor" d="M7447 9826 c-28 -15 -464 -417 -544 -503 -36 -38 -43 -51 -43 -86 0 -39 5 -46 67 -102 375 -336 598 -626 803 -1040 249 -505 370 -1043 370 -1646 0 -1055 -398 -1980 -1108 -2576 -62 -53 -118 -106 -123 -119 -20 -53 8 -91 285 -387 291 -311 303 -321 371 -293 43 18 284 252 414 401 178 203 363 457 501 685 96 158 279 526 343 690 322 820 391 1698 201 2550 -185 824 -627 1622 -1244 2241 -190 191 -231 217 -293 185z"/>
</g>
</svg>